<ttFont>
<head>
    <!-- Most of this table will be recalculated by the compiler -->
    <tableVersion value="1.0"/>
    <fontRevision value="2.0"/>
    <checkSumAdjustment value="0x2b4b2e24"/>
    <magicNumber value="0x5f0f3cf5"/>
    <flags value="00000010 00011111"/>
    <unitsPerEm value="2048"/>
    <created value="Thu Oct  4 11:02:31 2012"/>
    <modified value="Thu Oct  4 11:02:31 2012"/>
    <xMin value="-1114"/>
    <yMin value="-621"/>
    <xMax value="2666"/>
    <yMax value="2007"/>
    <macStyle value="00000000 00000000"/>
    <lowestRecPPEM value="8"/>
    <fontDirectionHint value="0"/>
    <indexToLocFormat value="1"/>
    <glyphDataFormat value="0"/>
  </head>
    <TTGlyph name=".notdef" xMin="205" yMin="0" xMax="1330" yMax="1409">
      <contour>
        <pt x="205" y="1409" on="1"/>
        <pt x="1330" y="1409" on="1"/>
        <pt x="1330" y="0" on="1"/>
        <pt x="205" y="0" on="1"/>
      </contour>
      <contour>
        <pt x="281" y="1333" on="1"/>
        <pt x="281" y="76" on="1"/>
        <pt x="1254" y="76" on="1"/>
        <pt x="1254" y="1333" on="1"/>
      </contour>
    </TTGlyph>
    <TTGlyph name="D" xMin="168" yMin="0" xMax="1381" yMax="1409">
      <contour>
        <pt x="1381" y="719" on="1"/>
        <pt x="1381" y="501" on="0"/>
        <pt x="1211" y="174" on="0"/>
        <pt x="899" y="0" on="0"/>
        <pt x="695" y="0" on="1"/>
        <pt x="168" y="0" on="1"/>
        <pt x="168" y="1409" on="1"/>
        <pt x="634" y="1409" on="1"/>
        <pt x="992" y="1409" on="0"/>
        <pt x="1381" y="1050" on="0"/>
      </contour>
      <contour>
        <pt x="1189" y="719" on="1"/>
        <pt x="1189" y="981" on="0"/>
        <pt x="902" y="1256" on="0"/>
        <pt x="630" y="1256" on="1"/>
        <pt x="359" y="1256" on="1"/>
        <pt x="359" y="153" on="1"/>
        <pt x="673" y="153" on="1"/>
        <pt x="828" y="153" on="0"/>
        <pt x="1063" y="289" on="0"/>
        <pt x="1189" y="545" on="0"/>
      </contour>
    </TTGlyph>
    <TTGlyph name="F" xMin="168" yMin="0" xMax="1169" yMax="1409">
      <contour>
        <pt x="359" y="1253" on="1"/>
        <pt x="359" y="729" on="1"/>
        <pt x="1145" y="729" on="1"/>
        <pt x="1145" y="571" on="1"/>
        <pt x="359" y="571" on="1"/>
        <pt x="359" y="0" on="1"/>
        <pt x="168" y="0" on="1"/>
        <pt x="168" y="1409" on="1"/>
        <pt x="1169" y="1409" on="1"/>
        <pt x="1169" y="1253" on="1"/>
      </contour>
    </TTGlyph>
    <TTGlyph name="M" xMin="168" yMin="0" xMax="1538" yMax="1409">
      <contour>
        <pt x="1366" y="0" on="1"/>
        <pt x="1366" y="940" on="1"/>
        <pt x="1366" y="1096" on="0"/>
        <pt x="1375" y="1240" on="1"/>
        <pt x="1326" y="1061" on="0"/>
        <pt x="1287" y="960" on="1"/>
        <pt x="923" y="0" on="1"/>
        <pt x="789" y="0" on="1"/>
        <pt x="420" y="960" on="1"/>
        <pt x="364" y="1130" on="1"/>
        <pt x="331" y="1240" on="1"/>
        <pt x="334" y="1129" on="1"/>
        <pt x="338" y="940" on="1"/>
        <pt x="338" y="0" on="1"/>
        <pt x="168" y="0" on="1"/>
        <pt x="168" y="1409" on="1"/>
        <pt x="419" y="1409" on="1"/>
        <pt x="794" y="432" on="1"/>
        <pt x="814" y="373" on="0"/>
        <pt x="851" y="238" on="0"/>
        <pt x="857" y="208" on="1"/>
        <pt x="865" y="248" on="0"/>
        <pt x="916" y="411" on="0"/>
        <pt x="925" y="432" on="1"/>
        <pt x="1293" y="1409" on="1"/>
        <pt x="1538" y="1409" on="1"/>
        <pt x="1538" y="0" on="1"/>
      </contour>
    </TTGlyph>
    <TTGlyph name="S" xMin="93" yMin="-20" xMax="1272" yMax="1430">
      <contour>
        <pt x="1272" y="389" on="1"/>
        <pt x="1272" y="194" on="0"/>
        <pt x="967" y="-20" on="0"/>
        <pt x="690" y="-20" on="1"/>
        <pt x="175" y="-20" on="0"/>
        <pt x="93" y="338" on="1"/>
        <pt x="278" y="375" on="1"/>
        <pt x="310" y="248" on="0"/>
        <pt x="518" y="129" on="0"/>
        <pt x="697" y="129" on="1"/>
        <pt x="882" y="129" on="0"/>
        <pt x="1083" y="256" on="0"/>
        <pt x="1083" y="379" on="1"/>
        <pt x="1083" y="448" on="0"/>
        <pt x="1020" y="534" on="0"/>
        <pt x="906" y="590" on="0"/>
        <pt x="748" y="628" on="0"/>
        <pt x="652" y="650" on="1"/>
        <pt x="485" y="687" on="0"/>
        <pt x="312" y="761" on="0"/>
        <pt x="212" y="852" on="0"/>
        <pt x="159" y="974" on="0"/>
        <pt x="159" y="1053" on="1"/>
        <pt x="159" y="1234" on="0"/>
        <pt x="436" y="1430" on="0"/>
        <pt x="694" y="1430" on="1"/>
        <pt x="934" y="1430" on="0"/>
        <pt x="1188" y="1283" on="0"/>
        <pt x="1239" y="1106" on="1"/>
        <pt x="1051" y="1073" on="1"/>
        <pt x="1020" y="1185" on="0"/>
        <pt x="846" y="1286" on="0"/>
        <pt x="692" y="1286" on="1"/>
        <pt x="523" y="1286" on="0"/>
        <pt x="345" y="1174" on="0"/>
        <pt x="345" y="1063" on="1"/>
        <pt x="345" y="998" on="0"/>
        <pt x="414" y="913" on="0"/>
        <pt x="544" y="854" on="0"/>
        <pt x="738" y="811" on="1"/>
        <pt x="803" y="796" on="0"/>
        <pt x="932" y="765" on="0"/>
        <pt x="1050" y="722" on="0"/>
        <pt x="1153" y="664" on="0"/>
        <pt x="1229" y="580" on="0"/>
        <pt x="1272" y="466" on="0"/>
      </contour>
    </TTGlyph>
    <TTGlyph name="a" xMin="87" yMin="-20" xMax="1139" yMax="1102">
      <contour>
        <pt x="414" y="-20" on="1"/>
        <pt x="251" y="-20" on="0"/>
        <pt x="87" y="152" on="0"/>
        <pt x="87" y="302" on="1"/>
        <pt x="87" y="470" on="0"/>
        <pt x="308" y="650" on="0"/>
        <pt x="554" y="656" on="1"/>
        <pt x="797" y="660" on="1"/>
        <pt x="797" y="719" on="1"/>
        <pt x="797" y="851" on="0"/>
        <pt x="685" y="965" on="0"/>
        <pt x="565" y="965" on="1"/>
        <pt x="444" y="965" on="0"/>
        <pt x="334" y="883" on="0"/>
        <pt x="323" y="793" on="1"/>
        <pt x="135" y="810" on="1"/>
        <pt x="181" y="1102" on="0"/>
        <pt x="569" y="1102" on="1"/>
        <pt x="773" y="1102" on="0"/>
        <pt x="979" y="915" on="0"/>
        <pt x="979" y="738" on="1"/>
        <pt x="979" y="272" on="1"/>
        <pt x="979" y="192" on="0"/>
        <pt x="1021" y="111" on="0"/>
        <pt x="1080" y="111" on="1"/>
        <pt x="1106" y="111" on="0"/>
        <pt x="1139" y="118" on="1"/>
        <pt x="1139" y="6" on="1"/>
        <pt x="1071" y="-10" on="0"/>
        <pt x="1000" y="-10" on="1"/>
        <pt x="900" y="-10" on="0"/>
        <pt x="809" y="95" on="0"/>
        <pt x="803" y="207" on="1"/>
        <pt x="797" y="207" on="1"/>
        <pt x="728" y="83" on="0"/>
        <pt x="545" y="-20" on="0"/>
      </contour>
      <contour>
        <pt x="455" y="115" on="1"/>
        <pt x="554" y="115" on="0"/>
        <pt x="708" y="205" on="0"/>
        <pt x="797" y="362" on="0"/>
        <pt x="797" y="445" on="1"/>
        <pt x="797" y="534" on="1"/>
        <pt x="600" y="530" on="1"/>
        <pt x="473" y="528" on="0"/>
        <pt x="342" y="480" on="0"/>
        <pt x="272" y="380" on="0"/>
        <pt x="272" y="299" on="1"/>
        <pt x="272" y="211" on="0"/>
        <pt x="367" y="115" on="0"/>
      </contour>
    </TTGlyph>
    <TTGlyph name="c" xMin="87" yMin="-20" xMax="970" yMax="1102">
      <contour>
        <pt x="275" y="546" on="1"/>
        <pt x="275" y="330" on="0"/>
        <pt x="411" y="122" on="0"/>
        <pt x="548" y="122" on="1"/>
        <pt x="644" y="122" on="0"/>
        <pt x="773" y="226" on="0"/>
        <pt x="788" y="334" on="1"/>
        <pt x="970" y="322" on="1"/>
        <pt x="949" y="166" on="0"/>
        <pt x="725" y="-20" on="0"/>
        <pt x="553" y="-20" on="1"/>
        <pt x="326" y="-20" on="0"/>
        <pt x="87" y="267" on="0"/>
        <pt x="87" y="542" on="1"/>
        <pt x="87" y="815" on="0"/>
        <pt x="327" y="1102" on="0"/>
        <pt x="551" y="1102" on="1"/>
        <pt x="717" y="1102" on="0"/>
        <pt x="936" y="930" on="0"/>
        <pt x="964" y="779" on="1"/>
        <pt x="779" y="765" on="1"/>
        <pt x="765" y="855" on="0"/>
        <pt x="651" y="961" on="0"/>
        <pt x="546" y="961" on="1"/>
        <pt x="403" y="961" on="0"/>
        <pt x="275" y="771" on="0"/>
      </contour>
    </TTGlyph>
    <TTGlyph name="colon" xMin="187" yMin="0" xMax="382" yMax="1082">
      <contour>
        <pt x="187" y="875" on="1"/>
        <pt x="187" y="1082" on="1"/>
        <pt x="382" y="1082" on="1"/>
        <pt x="382" y="875" on="1"/>
      </contour>
      <contour>
        <pt x="187" y="0" on="1"/>
        <pt x="187" y="207" on="1"/>
        <pt x="382" y="207" on="1"/>
        <pt x="382" y="0" on="1"/>
      </contour>
    </TTGlyph>
    <TTGlyph name="comma" xMin="184" yMin="-262" xMax="385" yMax="219">
      <contour>
        <pt x="385" y="219" on="1"/>
        <pt x="385" y="51" on="1"/>
        <pt x="385" y="-55" on="0"/>
        <pt x="347" y="-197" on="0"/>
        <pt x="307" y="-262" on="1"/>
        <pt x="184" y="-262" on="1"/>
        <pt x="278" y="-126" on="0"/>
        <pt x="278" y="0" on="1"/>
        <pt x="190" y="0" on="1"/>
        <pt x="190" y="219" on="1"/>
      </contour>
    </TTGlyph>
    <TTGlyph name="e" xMin="87" yMin="-20" xMax="1048" yMax="1102">
      <contour>
        <pt x="276" y="503" on="1"/>
        <pt x="276" y="317" on="0"/>
        <pt x="430" y="115" on="0"/>
        <pt x="578" y="115" on="1"/>
        <pt x="695" y="115" on="0"/>
        <pt x="836" y="209" on="0"/>
        <pt x="861" y="281" on="1"/>
        <pt x="1019" y="236" on="1"/>
        <pt x="922" y="-20" on="0"/>
        <pt x="578" y="-20" on="1"/>
        <pt x="338" y="-20" on="0"/>
        <pt x="87" y="266" on="0"/>
        <pt x="87" y="548" on="1"/>
        <pt x="87" y="816" on="0"/>
        <pt x="338" y="1102" on="0"/>
        <pt x="571" y="1102" on="1"/>
        <pt x="1048" y="1102" on="0"/>
        <pt x="1048" y="527" on="1"/>
        <pt x="1048" y="503" on="1"/>
      </contour>
      <contour>
        <pt x="862" y="641" on="1"/>
        <pt x="847" y="812" on="0"/>
        <pt x="703" y="969" on="0"/>
        <pt x="568" y="969" on="1"/>
        <pt x="437" y="969" on="0"/>
        <pt x="284" y="794" on="0"/>
        <pt x="278" y="641" on="1"/>
      </contour>
    </TTGlyph>
    <TTGlyph name="eight" xMin="89" yMin="-20" xMax="1050" yMax="1430">
      <contour>
        <pt x="1050" y="393" on="1"/>
        <pt x="1050" y="198" on="0"/>
        <pt x="802" y="-20" on="0"/>
        <pt x="570" y="-20" on="1"/>
        <pt x="344" y="-20" on="0"/>
        <pt x="89" y="194" on="0"/>
        <pt x="89" y="391" on="1"/>
        <pt x="89" y="529" on="0"/>
        <pt x="247" y="717" on="0"/>
        <pt x="370" y="737" on="1"/>
        <pt x="370" y="741" on="1"/>
        <pt x="255" y="768" on="0"/>
        <pt x="122" y="948" on="0"/>
        <pt x="122" y="1069" on="1"/>
        <pt x="122" y="1230" on="0"/>
        <pt x="363" y="1430" on="0"/>
        <pt x="566" y="1430" on="1"/>
        <pt x="774" y="1430" on="0"/>
        <pt x="1015" y="1234" on="0"/>
        <pt x="1015" y="1067" on="1"/>
        <pt x="1015" y="946" on="0"/>
        <pt x="881" y="766" on="0"/>
        <pt x="765" y="743" on="1"/>
        <pt x="765" y="739" on="1"/>
        <pt x="900" y="717" on="0"/>
        <pt x="1050" y="532" on="0"/>
      </contour>
      <contour>
        <pt x="828" y="1057" on="1"/>
        <pt x="828" y="1296" on="0"/>
        <pt x="566" y="1296" on="1"/>
        <pt x="439" y="1296" on="0"/>
        <pt x="306" y="1176" on="0"/>
        <pt x="306" y="1057" on="1"/>
        <pt x="306" y="936" on="0"/>
        <pt x="443" y="809" on="0"/>
        <pt x="568" y="809" on="1"/>
        <pt x="695" y="809" on="0"/>
        <pt x="828" y="926" on="0"/>
      </contour>
      <contour>
        <pt x="863" y="410" on="1"/>
        <pt x="863" y="541" on="0"/>
        <pt x="707" y="674" on="0"/>
        <pt x="566" y="674" on="1"/>
        <pt x="429" y="674" on="0"/>
        <pt x="275" y="531" on="0"/>
        <pt x="275" y="406" on="1"/>
        <pt x="275" y="115" on="0"/>
        <pt x="572" y="115" on="1"/>
        <pt x="719" y="115" on="0"/>
        <pt x="863" y="256" on="0"/>
      </contour>
    </TTGlyph>
    <TTGlyph name="five" xMin="82" yMin="-20" xMax="1053" yMax="1409">
      <contour>
        <pt x="1053" y="459" on="1"/>
        <pt x="1053" y="236" on="0"/>
        <pt x="788" y="-20" on="0"/>
        <pt x="553" y="-20" on="1"/>
        <pt x="356" y="-20" on="0"/>
        <pt x="114" y="152" on="0"/>
        <pt x="82" y="315" on="1"/>
        <pt x="264" y="336" on="1"/>
        <pt x="321" y="127" on="0"/>
        <pt x="557" y="127" on="1"/>
        <pt x="702" y="127" on="0"/>
        <pt x="866" y="302" on="0"/>
        <pt x="866" y="455" on="1"/>
        <pt x="866" y="588" on="0"/>
        <pt x="701" y="752" on="0"/>
        <pt x="561" y="752" on="1"/>
        <pt x="488" y="752" on="0"/>
        <pt x="362" y="706" on="0"/>
        <pt x="299" y="651" on="1"/>
        <pt x="123" y="651" on="1"/>
        <pt x="170" y="1409" on="1"/>
        <pt x="971" y="1409" on="1"/>
        <pt x="971" y="1256" on="1"/>
        <pt x="334" y="1256" on="1"/>
        <pt x="307" y="809" on="1"/>
        <pt x="424" y="899" on="0"/>
        <pt x="598" y="899" on="1"/>
        <pt x="806" y="899" on="0"/>
        <pt x="1053" y="655" on="0"/>
      </contour>
    </TTGlyph>
    <TTGlyph name="four" xMin="47" yMin="0" xMax="1079" yMax="1409">
      <contour>
        <pt x="881" y="319" on="1"/>
        <pt x="881" y="0" on="1"/>
        <pt x="711" y="0" on="1"/>
        <pt x="711" y="319" on="1"/>
        <pt x="47" y="319" on="1"/>
        <pt x="47" y="459" on="1"/>
        <pt x="692" y="1409" on="1"/>
        <pt x="881" y="1409" on="1"/>
        <pt x="881" y="461" on="1"/>
        <pt x="1079" y="461" on="1"/>
        <pt x="1079" y="319" on="1"/>
      </contour>
      <contour>
        <pt x="711" y="1206" on="1"/>
        <pt x="709" y="1200" on="0"/>
        <pt x="657" y="1106" on="0"/>
        <pt x="644" y="1087" on="1"/>
        <pt x="283" y="555" on="1"/>
        <pt x="229" y="481" on="1"/>
        <pt x="213" y="461" on="1"/>
        <pt x="711" y="461" on="1"/>
      </contour>
    </TTGlyph>
    <TTGlyph name="g" xMin="86" yMin="-425" xMax="1007" yMax="1099">
      <contour>
        <pt x="548" y="-425" on="1"/>
        <pt x="371" y="-425" on="0"/>
        <pt x="161" y="-286" on="0"/>
        <pt x="131" y="-158" on="1"/>
        <pt x="312" y="-132" on="1"/>
        <pt x="330" y="-207" on="0"/>
        <pt x="453" y="-288" on="0"/>
        <pt x="553" y="-288" on="1"/>
        <pt x="822" y="-288" on="0"/>
        <pt x="822" y="27" on="1"/>
        <pt x="822" y="201" on="1"/>
        <pt x="820" y="201" on="1"/>
        <pt x="769" y="97" on="0"/>
        <pt x="591" y="-8" on="0"/>
        <pt x="472" y="-8" on="1"/>
        <pt x="273" y="-8" on="0"/>
        <pt x="86" y="256" on="0"/>
        <pt x="86" y="539" on="1"/>
        <pt x="86" y="826" on="0"/>
        <pt x="287" y="1099" on="0"/>
        <pt x="492" y="1099" on="1"/>
        <pt x="607" y="1099" on="0"/>
        <pt x="776" y="994" on="0"/>
        <pt x="822" y="897" on="1"/>
        <pt x="824" y="897" on="1"/>
        <pt x="824" y="927" on="0"/>
        <pt x="832" y="1075" on="0"/>
        <pt x="836" y="1082" on="1"/>
        <pt x="1007" y="1082" on="1"/>
        <pt x="1001" y="1028" on="0"/>
        <pt x="1001" y="858" on="1"/>
        <pt x="1001" y="31" on="1"/>
        <pt x="1001" y="-425" on="0"/>
      </contour>
      <contour>
        <pt x="822" y="541" on="1"/>
        <pt x="822" y="673" on="0"/>
        <pt x="750" y="864" on="0"/>
        <pt x="619" y="965" on="0"/>
        <pt x="536" y="965" on="1"/>
        <pt x="398" y="965" on="0"/>
        <pt x="272" y="765" on="0"/>
        <pt x="272" y="541" on="1"/>
        <pt x="272" y="319" on="0"/>
        <pt x="390" y="125" on="0"/>
        <pt x="533" y="125" on="1"/>
        <pt x="618" y="125" on="0"/>
        <pt x="750" y="225" on="0"/>
        <pt x="822" y="412" on="0"/>
      </contour>
    </TTGlyph>
    <TTGlyph name="h" xMin="142" yMin="0" xMax="1006" yMax="1484">
      <contour>
        <pt x="317" y="897" on="1"/>
        <pt x="375" y="1003" on="0"/>
        <pt x="538" y="1102" on="0"/>
        <pt x="663" y="1102" on="1"/>
        <pt x="839" y="1102" on="0"/>
        <pt x="1006" y="927" on="0"/>
        <pt x="1006" y="721" on="1"/>
        <pt x="1006" y="0" on="1"/>
        <pt x="825" y="0" on="1"/>
        <pt x="825" y="686" on="1"/>
        <pt x="825" y="800" on="0"/>
        <pt x="783" y="911" on="0"/>
        <pt x="687" y="963" on="0"/>
        <pt x="602" y="963" on="1"/>
        <pt x="475" y="963" on="0"/>
        <pt x="322" y="787" on="0"/>
        <pt x="322" y="638" on="1"/>
        <pt x="322" y="0" on="1"/>
        <pt x="142" y="0" on="1"/>
        <pt x="142" y="1484" on="1"/>
        <pt x="322" y="1484" on="1"/>
        <pt x="322" y="1098" on="1"/>
        <pt x="322" y="1037" on="0"/>
        <pt x="315" y="907" on="0"/>
        <pt x="314" y="897" on="1"/>
      </contour>
    </TTGlyph>
    <TTGlyph name="i" xMin="137" yMin="0" xMax="317" yMax="1484">
      <contour>
        <pt x="137" y="1312" on="1"/>
        <pt x="137" y="1484" on="1"/>
        <pt x="317" y="1484" on="1"/>
        <pt x="317" y="1312" on="1"/>
      </contour>
      <contour>
        <pt x="137" y="0" on="1"/>
        <pt x="137" y="1082" on="1"/>
        <pt x="317" y="1082" on="1"/>
        <pt x="317" y="0" on="1"/>
      </contour>
    </TTGlyph>
    <TTGlyph name="m" xMin="136" yMin="0" xMax="1571" yMax="1102">
      <contour>
        <pt x="768" y="0" on="1"/>
        <pt x="768" y="686" on="1"/>
        <pt x="768" y="843" on="0"/>
        <pt x="682" y="963" on="0"/>
        <pt x="570" y="963" on="1"/>
        <pt x="455" y="963" on="0"/>
        <pt x="321" y="787" on="0"/>
        <pt x="321" y="627" on="1"/>
        <pt x="321" y="0" on="1"/>
        <pt x="142" y="0" on="1"/>
        <pt x="142" y="851" on="1"/>
        <pt x="142" y="1040" on="0"/>
        <pt x="136" y="1082" on="1"/>
        <pt x="306" y="1082" on="1"/>
        <pt x="307" y="1077" on="0"/>
        <pt x="309" y="1033" on="0"/>
        <pt x="312" y="976" on="0"/>
        <pt x="314" y="897" on="1"/>
        <pt x="317" y="897" on="1"/>
        <pt x="375" y="1012" on="0"/>
        <pt x="525" y="1102" on="0"/>
        <pt x="633" y="1102" on="1"/>
        <pt x="756" y="1102" on="0"/>
        <pt x="899" y="1004" on="0"/>
        <pt x="927" y="897" on="1"/>
        <pt x="930" y="897" on="1"/>
        <pt x="986" y="1006" on="0"/>
        <pt x="1145" y="1102" on="0"/>
        <pt x="1258" y="1102" on="1"/>
        <pt x="1422" y="1102" on="0"/>
        <pt x="1571" y="924" on="0"/>
        <pt x="1571" y="721" on="1"/>
        <pt x="1571" y="0" on="1"/>
        <pt x="1393" y="0" on="1"/>
        <pt x="1393" y="686" on="1"/>
        <pt x="1393" y="843" on="0"/>
        <pt x="1307" y="963" on="0"/>
        <pt x="1195" y="963" on="1"/>
        <pt x="1077" y="963" on="0"/>
        <pt x="946" y="788" on="0"/>
        <pt x="946" y="627" on="1"/>
        <pt x="946" y="0" on="1"/>
      </contour>
    </TTGlyph>
    <TTGlyph name="n" xMin="136" yMin="0" xMax="1006" yMax="1102">
      <contour>
        <pt x="825" y="0" on="1"/>
        <pt x="825" y="686" on="1"/>
        <pt x="825" y="793" on="0"/>
        <pt x="783" y="911" on="0"/>
        <pt x="691" y="963" on="0"/>
        <pt x="602" y="963" on="1"/>
        <pt x="472" y="963" on="0"/>
        <pt x="322" y="785" on="0"/>
        <pt x="322" y="627" on="1"/>
        <pt x="322" y="0" on="1"/>
        <pt x="142" y="0" on="1"/>
        <pt x="142" y="851" on="1"/>
        <pt x="142" y="1040" on="0"/>
        <pt x="136" y="1082" on="1"/>
        <pt x="306" y="1082" on="1"/>
        <pt x="307" y="1077" on="0"/>
        <pt x="309" y="1033" on="0"/>
        <pt x="312" y="976" on="0"/>
        <pt x="314" y="897" on="1"/>
        <pt x="317" y="897" on="1"/>
        <pt x="379" y="1009" on="0"/>
        <pt x="542" y="1102" on="0"/>
        <pt x="663" y="1102" on="1"/>
        <pt x="841" y="1102" on="0"/>
        <pt x="1006" y="925" on="0"/>
        <pt x="1006" y="721" on="1"/>
        <pt x="1006" y="0" on="1"/>
      </contour>
    </TTGlyph>
    <TTGlyph name="nine" xMin="96" yMin="-20" xMax="1042" yMax="1430">
      <contour>
        <pt x="1042" y="733" on="1"/>
        <pt x="1042" y="370" on="0"/>
        <pt x="777" y="-20" on="0"/>
        <pt x="532" y="-20" on="1"/>
        <pt x="367" y="-20" on="0"/>
        <pt x="168" y="119" on="0"/>
        <pt x="125" y="274" on="1"/>
        <pt x="297" y="301" on="1"/>
        <pt x="351" y="125" on="0"/>
        <pt x="535" y="125" on="1"/>
        <pt x="690" y="125" on="0"/>
        <pt x="860" y="413" on="0"/>
        <pt x="864" y="680" on="1"/>
        <pt x="824" y="590" on="0"/>
        <pt x="630" y="481" on="0"/>
        <pt x="514" y="481" on="1"/>
        <pt x="324" y="481" on="0"/>
        <pt x="96" y="741" on="0"/>
        <pt x="96" y="956" on="1"/>
        <pt x="96" y="1177" on="0"/>
        <pt x="344" y="1430" on="0"/>
        <pt x="565" y="1430" on="1"/>
        <pt x="800" y="1430" on="0"/>
        <pt x="1042" y="1082" on="0"/>
      </contour>
      <contour>
        <pt x="846" y="907" on="1"/>
        <pt x="846" y="1077" on="0"/>
        <pt x="690" y="1284" on="0"/>
        <pt x="559" y="1284" on="1"/>
        <pt x="429" y="1284" on="0"/>
        <pt x="279" y="1107" on="0"/>
        <pt x="279" y="956" on="1"/>
        <pt x="279" y="802" on="0"/>
        <pt x="429" y="623" on="0"/>
        <pt x="557" y="623" on="1"/>
        <pt x="635" y="623" on="0"/>
        <pt x="769" y="694" on="0"/>
        <pt x="846" y="824" on="0"/>
      </contour>
    </TTGlyph>
    <TTGlyph name="o" xMin="86" yMin="-20" xMax="1053" yMax="1102">
      <contour>
        <pt x="1053" y="542" on="1"/>
        <pt x="1053" y="258" on="0"/>
        <pt x="803" y="-20" on="0"/>
        <pt x="565" y="-20" on="1"/>
        <pt x="328" y="-20" on="0"/>
        <pt x="86" y="269" on="0"/>
        <pt x="86" y="542" on="1"/>
        <pt x="86" y="1102" on="0"/>
        <pt x="571" y="1102" on="1"/>
        <pt x="819" y="1102" on="0"/>
        <pt x="1053" y="829" on="0"/>
      </contour>
      <contour>
        <pt x="864" y="542" on="1"/>
        <pt x="864" y="766" on="0"/>
        <pt x="731" y="969" on="0"/>
        <pt x="574" y="969" on="1"/>
        <pt x="416" y="969" on="0"/>
        <pt x="275" y="762" on="0"/>
        <pt x="275" y="542" on="1"/>
        <pt x="275" y="328" on="0"/>
        <pt x="414" y="113" on="0"/>
        <pt x="563" y="113" on="1"/>
        <pt x="725" y="113" on="0"/>
        <pt x="864" y="321" on="0"/>
      </contour>
    </TTGlyph>
    <TTGlyph name="one" xMin="156" yMin="0" xMax="1039" yMax="1409">
      <contour>
        <pt x="156" y="0" on="1"/>
        <pt x="156" y="153" on="1"/>
        <pt x="515" y="153" on="1"/>
        <pt x="515" y="1237" on="1"/>
        <pt x="197" y="1010" on="1"/>
        <pt x="197" y="1180" on="1"/>
        <pt x="530" y="1409" on="1"/>
        <pt x="696" y="1409" on="1"/>
        <pt x="696" y="153" on="1"/>
        <pt x="1039" y="153" on="1"/>
        <pt x="1039" y="0" on="1"/>
      </contour>
    </TTGlyph>
    <TTGlyph name="period" xMin="187" yMin="0" xMax="382" yMax="219">
      <contour>
        <pt x="187" y="0" on="1"/>
        <pt x="187" y="219" on="1"/>
        <pt x="382" y="219" on="1"/>
        <pt x="382" y="0" on="1"/>
      </contour>
    </TTGlyph>
    <TTGlyph name="r" xMin="136" yMin="0" xMax="648" yMax="1102">
      <contour>
        <pt x="142" y="0" on="1"/>
        <pt x="142" y="830" on="1"/>
        <pt x="142" y="944" on="0"/>
        <pt x="136" y="1082" on="1"/>
        <pt x="306" y="1082" on="1"/>
        <pt x="314" y="898" on="0"/>
        <pt x="314" y="861" on="1"/>
        <pt x="318" y="861" on="1"/>
        <pt x="361" y="1000" on="0"/>
        <pt x="473" y="1102" on="0"/>
        <pt x="575" y="1102" on="1"/>
        <pt x="611" y="1102" on="0"/>
        <pt x="648" y="1092" on="1"/>
        <pt x="648" y="927" on="1"/>
        <pt x="612" y="937" on="0"/>
        <pt x="552" y="937" on="1"/>
        <pt x="440" y="937" on="0"/>
        <pt x="322" y="744" on="0"/>
        <pt x="322" y="564" on="1"/>
        <pt x="322" y="0" on="1"/>
      </contour>
    </TTGlyph>
    <TTGlyph name="s" xMin="57" yMin="-20" xMax="950" yMax="1099">
      <contour>
        <pt x="950" y="299" on="1"/>
        <pt x="950" y="146" on="0"/>
        <pt x="719" y="-20" on="0"/>
        <pt x="511" y="-20" on="1"/>
        <pt x="309" y="-20" on="0"/>
        <pt x="90" y="113" on="0"/>
        <pt x="57" y="254" on="1"/>
        <pt x="216" y="285" on="1"/>
        <pt x="239" y="198" on="0"/>
        <pt x="383" y="117" on="0"/>
        <pt x="511" y="117" on="1"/>
        <pt x="648" y="117" on="0"/>
        <pt x="775" y="201" on="0"/>
        <pt x="775" y="285" on="1"/>
        <pt x="775" y="349" on="0"/>
        <pt x="687" y="429" on="0"/>
        <pt x="589" y="455" on="1"/>
        <pt x="460" y="489" on="1"/>
        <pt x="305" y="529" on="0"/>
        <pt x="174" y="606" on="0"/>
        <pt x="100" y="716" on="0"/>
        <pt x="100" y="796" on="1"/>
        <pt x="100" y="944" on="0"/>
        <pt x="311" y="1099" on="0"/>
        <pt x="513" y="1099" on="1"/>
        <pt x="692" y="1099" on="0"/>
        <pt x="903" y="973" on="0"/>
        <pt x="931" y="834" on="1"/>
        <pt x="769" y="814" on="1"/>
        <pt x="754" y="886" on="0"/>
        <pt x="623" y="963" on="0"/>
        <pt x="513" y="963" on="1"/>
        <pt x="391" y="963" on="0"/>
        <pt x="275" y="889" on="0"/>
        <pt x="275" y="814" on="1"/>
        <pt x="275" y="768" on="0"/>
        <pt x="323" y="708" on="0"/>
        <pt x="417" y="666" on="0"/>
        <pt x="568" y="629" on="1"/>
        <pt x="711" y="593" on="0"/>
        <pt x="837" y="532" on="0"/>
        <pt x="910" y="458" on="0"/>
        <pt x="950" y="361" on="0"/>
      </contour>
    </TTGlyph>
    <TTGlyph name="seven" xMin="105" yMin="0" xMax="1036" yMax="1409">
      <contour>
        <pt x="1036" y="1263" on="1"/>
        <pt x="820" y="933" on="0"/>
        <pt x="642" y="559" on="0"/>
        <pt x="553" y="195" on="0"/>
        <pt x="553" y="0" on="1"/>
        <pt x="365" y="0" on="1"/>
        <pt x="365" y="270" on="0"/>
        <pt x="594" y="867" on="0"/>
        <pt x="862" y="1256" on="1"/>
        <pt x="105" y="1256" on="1"/>
        <pt x="105" y="1409" on="1"/>
        <pt x="1036" y="1409" on="1"/>
      </contour>
    </TTGlyph>
    <TTGlyph name="six" xMin="104" yMin="-20" xMax="1049" yMax="1430">
      <contour>
        <pt x="1049" y="461" on="1"/>
        <pt x="1049" y="238" on="0"/>
        <pt x="807" y="-20" on="0"/>
        <pt x="594" y="-20" on="1"/>
        <pt x="356" y="-20" on="0"/>
        <pt x="104" y="334" on="0"/>
        <pt x="104" y="672" on="1"/>
        <pt x="104" y="1038" on="0"/>
        <pt x="366" y="1430" on="0"/>
        <pt x="608" y="1430" on="1"/>
        <pt x="927" y="1430" on="0"/>
        <pt x="1010" y="1143" on="1"/>
        <pt x="838" y="1112" on="1"/>
        <pt x="785" y="1284" on="0"/>
        <pt x="606" y="1284" on="1"/>
        <pt x="452" y="1284" on="0"/>
        <pt x="283" y="997" on="0"/>
        <pt x="283" y="725" on="1"/>
        <pt x="332" y="816" on="0"/>
        <pt x="510" y="911" on="0"/>
        <pt x="625" y="911" on="1"/>
        <pt x="820" y="911" on="0"/>
        <pt x="1049" y="667" on="0"/>
      </contour>
      <contour>
        <pt x="866" y="453" on="1"/>
        <pt x="866" y="606" on="0"/>
        <pt x="716" y="772" on="0"/>
        <pt x="582" y="772" on="1"/>
        <pt x="456" y="772" on="0"/>
        <pt x="301" y="625" on="0"/>
        <pt x="301" y="496" on="1"/>
        <pt x="301" y="333" on="0"/>
        <pt x="462" y="125" on="0"/>
        <pt x="588" y="125" on="1"/>
        <pt x="718" y="125" on="0"/>
        <pt x="866" y="300" on="0"/>
      </contour>
    </TTGlyph>
    <TTGlyph name="t" xMin="31" yMin="-16" xMax="554" yMax="1324">
      <contour>
        <pt x="554" y="8" on="1"/>
        <pt x="465" y="-16" on="0"/>
        <pt x="372" y="-16" on="1"/>
        <pt x="156" y="-16" on="0"/>
        <pt x="156" y="229" on="1"/>
        <pt x="156" y="951" on="1"/>
        <pt x="31" y="951" on="1"/>
        <pt x="31" y="1082" on="1"/>
        <pt x="163" y="1082" on="1"/>
        <pt x="216" y="1324" on="1"/>
        <pt x="336" y="1324" on="1"/>
        <pt x="336" y="1082" on="1"/>
        <pt x="536" y="1082" on="1"/>
        <pt x="536" y="951" on="1"/>
        <pt x="336" y="951" on="1"/>
        <pt x="336" y="268" on="1"/>
        <pt x="336" y="190" on="0"/>
        <pt x="387" y="127" on="0"/>
        <pt x="450" y="127" on="1"/>
        <pt x="486" y="127" on="0"/>
        <pt x="554" y="141" on="1"/>
      </contour>
    </TTGlyph>
    <TTGlyph name="three" xMin="78" yMin="-20" xMax="1049" yMax="1430">
      <contour>
        <pt x="1049" y="389" on="1"/>
        <pt x="1049" y="194" on="0"/>
        <pt x="801" y="-20" on="0"/>
        <pt x="571" y="-20" on="1"/>
        <pt x="357" y="-20" on="0"/>
        <pt x="102" y="173" on="0"/>
        <pt x="78" y="362" on="1"/>
        <pt x="264" y="379" on="1"/>
        <pt x="300" y="129" on="0"/>
        <pt x="571" y="129" on="1"/>
        <pt x="707" y="129" on="0"/>
        <pt x="862" y="263" on="0"/>
        <pt x="862" y="395" on="1"/>
        <pt x="862" y="510" on="0"/>
        <pt x="685" y="639" on="0"/>
        <pt x="518" y="639" on="1"/>
        <pt x="416" y="639" on="1"/>
        <pt x="416" y="795" on="1"/>
        <pt x="514" y="795" on="1"/>
        <pt x="662" y="795" on="0"/>
        <pt x="825" y="924" on="0"/>
        <pt x="825" y="1038" on="1"/>
        <pt x="825" y="1151" on="0"/>
        <pt x="692" y="1282" on="0"/>
        <pt x="561" y="1282" on="1"/>
        <pt x="442" y="1282" on="0"/>
        <pt x="295" y="1160" on="0"/>
        <pt x="283" y="1049" on="1"/>
        <pt x="102" y="1063" on="1"/>
        <pt x="122" y="1236" on="0"/>
        <pt x="369" y="1430" on="0"/>
        <pt x="563" y="1430" on="1"/>
        <pt x="775" y="1430" on="0"/>
        <pt x="1010" y="1233" on="0"/>
        <pt x="1010" y="1057" on="1"/>
        <pt x="1010" y="922" on="0"/>
        <pt x="859" y="753" on="0"/>
        <pt x="715" y="723" on="1"/>
        <pt x="715" y="719" on="1"/>
        <pt x="873" y="702" on="0"/>
        <pt x="1049" y="524" on="0"/>
      </contour>
    </TTGlyph>
    <TTGlyph name="two" xMin="103" yMin="0" xMax="1036" yMax="1430">
      <contour>
        <pt x="103" y="0" on="1"/>
        <pt x="103" y="127" on="1"/>
        <pt x="154" y="244" on="0"/>
        <pt x="301" y="423" on="0"/>
        <pt x="463" y="568" on="0"/>
        <pt x="622" y="692" on="0"/>
        <pt x="750" y="816" on="0"/>
        <pt x="829" y="952" on="0"/>
        <pt x="829" y="1038" on="1"/>
        <pt x="829" y="1154" on="0"/>
        <pt x="693" y="1282" on="0"/>
        <pt x="572" y="1282" on="1"/>
        <pt x="457" y="1282" on="0"/>
        <pt x="308" y="1157" on="0"/>
        <pt x="295" y="1044" on="1"/>
        <pt x="111" y="1061" on="1"/>
        <pt x="131" y="1230" on="0"/>
        <pt x="378" y="1430" on="0"/>
        <pt x="572" y="1430" on="1"/>
        <pt x="785" y="1430" on="0"/>
        <pt x="1014" y="1229" on="0"/>
        <pt x="1014" y="1044" on="1"/>
        <pt x="1014" y="962" on="0"/>
        <pt x="939" y="800" on="0"/>
        <pt x="791" y="638" on="0"/>
        <pt x="582" y="468" on="1"/>
        <pt x="467" y="374" on="0"/>
        <pt x="331" y="223" on="0"/>
        <pt x="301" y="153" on="1"/>
        <pt x="1036" y="153" on="1"/>
        <pt x="1036" y="0" on="1"/>
      </contour>
    </TTGlyph>
    <TTGlyph name="w" xMin="-3" yMin="0" xMax="1484" yMax="1082">
      <contour>
        <pt x="1174" y="0" on="1"/>
        <pt x="965" y="0" on="1"/>
        <pt x="776" y="765" on="1"/>
        <pt x="740" y="934" on="1"/>
        <pt x="731" y="889" on="0"/>
        <pt x="693" y="720" on="0"/>
        <pt x="508" y="0" on="1"/>
        <pt x="300" y="0" on="1"/>
        <pt x="-3" y="1082" on="1"/>
        <pt x="175" y="1082" on="1"/>
        <pt x="358" y="347" on="1"/>
        <pt x="365" y="323" on="0"/>
        <pt x="401" y="149" on="1"/>
        <pt x="418" y="223" on="1"/>
        <pt x="644" y="1082" on="1"/>
        <pt x="837" y="1082" on="1"/>
        <pt x="1026" y="339" on="1"/>
        <pt x="1072" y="149" on="1"/>
        <pt x="1103" y="288" on="1"/>
        <pt x="1308" y="1082" on="1"/>
        <pt x="1484" y="1082" on="1"/>
      </contour>
    </TTGlyph>
    <TTGlyph name="zero" xMin="80" yMin="-20" xMax="1059" yMax="1430">
      <contour>
        <pt x="1059" y="705" on="1"/>
        <pt x="1059" y="352" on="0"/>
        <pt x="810" y="-20" on="0"/>
        <pt x="567" y="-20" on="1"/>
        <pt x="324" y="-20" on="0"/>
        <pt x="80" y="350" on="0"/>
        <pt x="80" y="705" on="1"/>
        <pt x="80" y="1068" on="0"/>
        <pt x="317" y="1430" on="0"/>
        <pt x="573" y="1430" on="1"/>
        <pt x="822" y="1430" on="0"/>
        <pt x="1059" y="1064" on="0"/>
      </contour>
      <contour>
        <pt x="876" y="705" on="1"/>
        <pt x="876" y="1010" on="0"/>
        <pt x="735" y="1284" on="0"/>
        <pt x="573" y="1284" on="1"/>
        <pt x="407" y="1284" on="0"/>
        <pt x="262" y="1014" on="0"/>
        <pt x="262" y="705" on="1"/>
        <pt x="262" y="405" on="0"/>
        <pt x="409" y="127" on="0"/>
        <pt x="569" y="127" on="1"/>
        <pt x="728" y="127" on="0"/>
        <pt x="876" y="411" on="0"/>
      </contour>
    </TTGlyph>
</ttFont>
